<svg width="100" height="32" viewBox="0 0 100 32" fill="none" xmlns="http://www.w3.org/2000/svg">
<rect x="71" y="3" width="26" height="26" rx="13" fill="#313131"/>
<path fill-rule="evenodd" clip-rule="evenodd" d="M85.4299 17.9678C86.7917 17.4057 87.7501 16.0648 87.7501 14.5C87.7501 12.4289 86.0712 10.75 84.0001 10.75C81.929 10.75 80.2501 12.4289 80.2501 14.5C80.2501 16.0647 81.2085 17.4056 82.5702 17.9677C81.1756 18.1999 79.8926 18.7659 78.8083 19.5806L80.1899 21.4194C81.2512 20.6221 82.5687 20.15 83.9999 20.15C85.431 20.15 86.7485 20.6221 87.8098 21.4194L89.1914 19.5806C88.1072 18.766 86.8244 18.2 85.4299 17.9678Z" fill="white"/>
</svg>
